<svg xmlns="http://www.w3.org/2000/svg" xmlns:xlink="http://www.w3.org/1999/xlink" width="500" zoomAndPan="magnify" viewBox="0 0 375 374.999991" height="500" preserveAspectRatio="xMidYMid meet" version="1.0"><defs><g/><clipPath id="id1"><path d="M 168 38.285156 L 338 38.285156 L 338 206 L 168 206 Z M 168 38.285156 " clip-rule="nonzero"/></clipPath><clipPath id="id2"><path d="M 38 169 L 202 169 L 202 336.785156 L 38 336.785156 Z M 38 169 " clip-rule="nonzero"/></clipPath></defs><g clip-path="url(#id1)"><path fill="rgb(100%, 100%, 100%)" d="M 332.832031 91.410156 L 283.109375 42.367188 C 280.972656 40.257812 278.574219 38.308594 275.535156 38.308594 C 271.1875 38.308594 266.542969 42.058594 256.453125 50.550781 L 255.003906 51.78125 L 255.707031 53.167969 C 253.976562 53.789062 251.355469 54.8125 250.351562 55.628906 C 246.148438 59.039062 242.085938 62.105469 237.925781 65.011719 L 237.597656 65.25 L 236.789062 67.273438 L 230.957031 69.691406 L 228.28125 71.367188 C 214.460938 80.175781 191.335938 94.910156 170.808594 100.894531 L 168.597656 101.539062 L 169.914062 102.832031 C 172.382812 102.089844 174.960938 101.65625 177.542969 101.542969 C 196.789062 94.640625 217.113281 81.691406 229.738281 73.648438 L 232.097656 72.140625 L 238.878906 69.332031 L 239.808594 66.996094 C 243.90625 64.125 247.917969 61.085938 252.058594 57.726562 C 252.804688 57.117188 256.007812 55.894531 258.042969 55.21875 L 259.53125 54.722656 L 258.382812 52.457031 C 267.574219 44.726562 272.167969 41.011719 275.535156 41.011719 C 277.207031 41.011719 278.847656 41.960938 281.210938 44.289062 L 330.933594 93.332031 C 336.492188 98.816406 335.910156 100.542969 322.941406 116.132812 L 320.664062 115.007812 L 320.175781 116.492188 C 319.519531 118.527344 318.3125 121.722656 317.710938 122.476562 C 314.367188 126.648438 311.355469 130.671875 308.523438 134.757812 L 306.183594 135.710938 L 303.421875 142.484375 L 301.734375 145.167969 C 294.476562 156.6875 283.195312 174.644531 276.199219 192.257812 C 276.234375 192.8125 276.253906 193.371094 276.253906 193.9375 C 276.253906 196.824219 275.804688 199.625 274.964844 202.273438 C 274.878906 203.457031 274.675781 204.65625 274.363281 205.855469 L 274.449219 205.941406 L 275.070312 203.742188 C 280.84375 183.40625 295.351562 160.367188 304.023438 146.601562 L 305.777344 143.820312 L 308.257812 137.78125 L 310.285156 136.957031 L 310.519531 136.625 C 313.382812 132.480469 316.425781 128.402344 319.820312 124.164062 C 320.632812 123.160156 321.636719 120.539062 322.246094 118.808594 L 323.652344 119.496094 L 324.871094 118.039062 C 337.292969 103.109375 340.632812 99.101562 332.832031 91.410156 " fill-opacity="1" fill-rule="nonzero"/></g><path fill="rgb(100%, 100%, 100%)" d="M 291.257812 170.703125 L 292.742188 161.660156 C 293.09375 159.488281 292.65625 157.660156 291.511719 156.515625 L 218.515625 83.574219 C 217.378906 82.441406 215.527344 82 213.378906 82.34375 L 204.351562 83.796875 L 212.570312 79.792969 C 213.328125 79.425781 214.089844 79.054688 214.832031 78.683594 L 215.097656 78.550781 L 215.386719 78.542969 C 217.855469 78.464844 219.949219 79.191406 221.421875 80.667969 L 294.417969 153.609375 C 295.894531 155.082031 296.632812 157.171875 296.550781 159.640625 L 296.542969 159.941406 L 296.40625 160.207031 C 296.054688 160.902344 295.707031 161.613281 295.359375 162.324219 L 291.257812 170.703125 " fill-opacity="1" fill-rule="nonzero"/><path fill="rgb(100%, 100%, 100%)" d="M 216.503906 82.445312 C 217.222656 82.734375 217.855469 83.15625 218.394531 83.691406 L 291.390625 156.628906 C 291.9375 157.179688 292.359375 157.828125 292.648438 158.550781 C 292.429688 157.746094 292.050781 157.054688 291.511719 156.515625 L 218.515625 83.574219 C 217.984375 83.046875 217.304688 82.660156 216.503906 82.445312 Z M 291.472656 167.683594 L 291.265625 167.679688 C 290.769531 167.625 290.328125 167.425781 289.992188 167.089844 C 289.324219 166.421875 289.1875 165.410156 289.632812 164.4375 C 290.753906 162.015625 290.691406 159.753906 289.480469 158.539062 L 216.484375 85.601562 C 215.699219 84.820312 214.613281 84.652344 213.84375 84.652344 C 212.835938 84.652344 211.710938 84.929688 210.589844 85.445312 C 210.210938 85.617188 209.832031 85.707031 209.453125 85.707031 C 208.328125 85.707031 207.460938 84.933594 207.347656 83.832031 C 207.300781 83.421875 207.378906 82.996094 207.574219 82.53125 L 207.78125 82.054688 L 208.253906 81.835938 C 209.726562 81.164062 211.15625 80.480469 212.566406 79.792969 L 212.746094 79.707031 L 212.945312 79.675781 C 215.972656 79.1875 218.664062 79.902344 220.425781 81.664062 L 293.421875 154.605469 C 295.203125 156.382812 295.90625 159.042969 295.410156 162.09375 L 295.375 162.292969 L 295.289062 162.46875 C 294.605469 163.871094 293.925781 165.296875 293.257812 166.761719 L 293.042969 167.226562 L 292.574219 167.4375 C 292.191406 167.605469 291.828125 167.683594 291.472656 167.683594 " fill-opacity="1" fill-rule="nonzero"/><path fill="rgb(100%, 100%, 100%)" d="M 306.082031 138.808594 L 305.855469 137.078125 C 305.722656 136.035156 305.347656 135.199219 304.742188 134.59375 L 240.449219 70.351562 C 239.847656 69.75 239.011719 69.375 237.972656 69.242188 L 236.238281 69.019531 L 237.964844 64.726562 L 238.871094 64.71875 L 238.875 64.71875 C 241.054688 64.71875 242.847656 65.394531 244.132812 66.675781 L 308.421875 130.917969 C 309.722656 132.214844 310.398438 134.035156 310.378906 136.179688 L 310.371094 137.085938 L 306.082031 138.808594 " fill-opacity="1" fill-rule="nonzero"/><path fill="rgb(100%, 100%, 100%)" d="M 238.738281 69.394531 C 239.335938 69.652344 239.875 70.011719 240.328125 70.46875 L 304.625 134.714844 C 305.09375 135.183594 305.457031 135.734375 305.710938 136.34375 C 305.523438 135.636719 305.199219 135.050781 304.742188 134.59375 L 240.449219 70.351562 C 240 69.902344 239.425781 69.582031 238.738281 69.394531 Z M 305.738281 145.269531 L 303.925781 144.621094 C 303.613281 144.507812 303.359375 144.355469 303.15625 144.152344 C 302.492188 143.488281 302.363281 142.476562 302.8125 141.5 C 303.726562 139.511719 303.6875 137.597656 302.710938 136.625 L 238.417969 72.382812 C 237.785156 71.75 236.902344 71.617188 236.269531 71.617188 C 235.429688 71.617188 234.488281 71.847656 233.539062 72.28125 C 232.242188 72.878906 230.84375 72.332031 230.425781 71.148438 L 230.007812 69.941406 L 237.023438 67.0625 L 237.273438 66.429688 L 238.3125 66.5625 C 239.941406 66.769531 241.339844 67.421875 242.359375 68.441406 L 306.652344 132.683594 C 307.675781 133.707031 308.328125 135.105469 308.539062 136.730469 L 308.671875 137.773438 L 308.039062 138.023438 L 305.738281 143.625 L 305.738281 145.269531 " fill-opacity="1" fill-rule="nonzero"/><path fill="rgb(100%, 100%, 100%)" d="M 320.9375 122.167969 L 319.988281 117.457031 C 319.832031 116.667969 319.503906 116.019531 319.019531 115.535156 L 259.523438 56.085938 C 259.039062 55.605469 258.394531 55.277344 257.605469 55.117188 L 256.527344 54.898438 L 256.527344 54.101562 L 254.992188 51.039062 L 256.859375 50.78125 C 259.371094 50.429688 261.597656 51.0625 263.074219 52.539062 L 322.566406 111.988281 C 324.054688 113.472656 324.679688 115.679688 324.332031 118.199219 L 324.074219 120.0625 L 322.070312 119.0625 L 320.9375 122.167969 " fill-opacity="1" fill-rule="nonzero"/><path fill="rgb(100%, 100%, 100%)" d="M 257.921875 55.199219 C 258.480469 55.441406 258.980469 55.777344 259.40625 56.207031 L 318.898438 115.65625 C 319.328125 116.082031 319.664062 116.582031 319.902344 117.140625 L 319.910156 117.121094 C 319.734375 116.484375 319.433594 115.949219 319.019531 115.535156 L 259.523438 56.085938 C 259.109375 55.671875 258.578125 55.371094 257.9375 55.195312 Z M 318.957031 125.300781 L 317.886719 124.878906 C 317.707031 124.78125 317.550781 124.671875 317.417969 124.542969 C 316.742188 123.863281 316.605469 122.851562 317.054688 121.882812 C 317.867188 120.113281 317.84375 118.417969 316.988281 117.566406 L 257.492188 58.113281 C 256.949219 57.570312 256.171875 57.457031 255.617188 57.457031 C 254.867188 57.457031 254.027344 57.660156 253.175781 58.050781 C 252.808594 58.21875 252.429688 58.308594 252.0625 58.308594 C 251.25 58.308594 250.550781 57.894531 250.1875 57.207031 L 249.648438 56.1875 L 250.664062 55.425781 C 252.082031 54.277344 256.914062 52.683594 257.457031 52.507812 L 257.796875 52.394531 L 258.148438 52.46875 C 259.460938 52.738281 260.566406 53.3125 261.433594 54.171875 L 320.929688 113.625 C 321.800781 114.492188 322.378906 115.601562 322.640625 116.921875 L 322.710938 117.285156 L 322.59375 117.628906 C 321.910156 119.667969 320.632812 123.210938 319.65625 124.429688 L 318.957031 125.300781 " fill-opacity="1" fill-rule="nonzero"/><g clip-path="url(#id2)"><path fill="rgb(100%, 100%, 100%)" d="M 194.964844 274.609375 C 176.601562 281.710938 157.660156 293.777344 145.667969 301.417969 L 143.296875 302.925781 L 136.519531 305.738281 L 135.589844 308.074219 C 131.523438 310.929688 127.511719 313.960938 123.347656 317.34375 C 122.59375 317.953125 119.390625 319.175781 117.355469 319.851562 L 115.863281 320.347656 L 117.019531 322.613281 C 107.824219 330.34375 103.234375 334.0625 99.863281 334.0625 C 98.195312 334.058594 96.550781 333.109375 94.1875 330.78125 L 44.46875 281.738281 C 38.914062 276.257812 39.488281 274.53125 52.457031 258.9375 L 54.742188 260.058594 L 55.222656 258.574219 C 55.882812 256.542969 57.082031 253.347656 57.6875 252.59375 C 61.070312 248.371094 64.082031 244.347656 66.882812 240.3125 L 69.21875 239.359375 L 71.976562 232.585938 L 73.667969 229.898438 C 81.542969 217.398438 94.171875 197.316406 100.90625 178.328125 C 100.851562 177.632812 100.8125 176.929688 100.8125 176.222656 C 100.8125 174 101.089844 171.839844 101.589844 169.757812 L 100.953125 169.132812 L 100.332031 171.328125 C 94.558594 191.660156 80.046875 214.695312 71.378906 228.460938 L 69.621094 231.25 L 67.140625 237.289062 L 65.113281 238.113281 L 64.882812 238.445312 C 62.058594 242.539062 59.011719 246.613281 55.574219 250.902344 C 54.769531 251.914062 53.761719 254.535156 53.152344 256.261719 L 51.765625 255.578125 L 51.082031 256.375 C 50.90625 256.578125 50.738281 256.78125 50.527344 257.03125 C 38.417969 271.574219 34.769531 275.964844 42.566406 283.660156 L 92.289062 332.699219 C 94.425781 334.808594 96.824219 336.761719 99.863281 336.765625 C 104.207031 336.765625 108.851562 333.011719 118.949219 324.523438 L 120.390625 323.28125 L 119.691406 321.902344 C 121.421875 321.28125 124.042969 320.257812 125.050781 319.441406 C 129.277344 316.007812 133.347656 312.9375 137.472656 310.054688 L 137.804688 309.824219 L 138.613281 307.792969 L 144.445312 305.375 L 147.121094 303.695312 C 160.136719 295.402344 181.421875 281.84375 201.011719 275.296875 C 198.941406 275.296875 196.917969 275.0625 194.964844 274.609375 " fill-opacity="1" fill-rule="nonzero"/></g><path fill="rgb(100%, 100%, 100%)" d="M 159.632812 296.539062 C 157.328125 296.539062 155.375 295.800781 153.976562 294.402344 L 80.984375 221.464844 C 79.503906 219.988281 78.769531 217.902344 78.847656 215.425781 L 78.855469 215.128906 L 78.992188 214.859375 C 79.355469 214.144531 79.710938 213.410156 80.074219 212.675781 L 84.097656 204.421875 L 82.660156 213.40625 C 82.304688 215.582031 82.742188 217.410156 83.886719 218.554688 L 156.882812 291.496094 C 158.023438 292.632812 159.875 293.074219 162.027344 292.726562 L 171.066406 291.265625 L 162.835938 295.273438 C 162.070312 295.644531 161.3125 296.015625 160.566406 296.386719 L 160.304688 296.519531 L 160.011719 296.53125 C 159.882812 296.535156 159.753906 296.539062 159.632812 296.539062 " fill-opacity="1" fill-rule="nonzero"/><path fill="rgb(100%, 100%, 100%)" d="M 82.75 216.523438 C 82.96875 217.332031 83.351562 218.015625 83.886719 218.554688 L 156.882812 291.496094 C 157.417969 292.023438 158.09375 292.402344 158.886719 292.621094 C 158.171875 292.332031 157.539062 291.914062 157.003906 291.378906 L 84.007812 218.4375 C 83.460938 217.894531 83.042969 217.246094 82.75 216.523438 Z M 160.621094 295.546875 C 158.328125 295.546875 156.375 294.804688 154.976562 293.40625 L 81.980469 220.464844 C 80.199219 218.6875 79.492188 216.027344 79.992188 212.976562 L 80.023438 212.777344 L 80.109375 212.597656 C 80.816406 211.152344 81.5 209.710938 82.140625 208.308594 L 82.359375 207.835938 L 82.84375 207.625 C 83.230469 207.460938 83.585938 207.382812 83.929688 207.382812 L 84.132812 207.390625 C 84.636719 207.445312 85.078125 207.648438 85.417969 207.984375 C 86.078125 208.648438 86.207031 209.660156 85.761719 210.636719 C 84.660156 213.019531 84.722656 215.332031 85.917969 216.527344 L 158.917969 289.46875 C 159.699219 290.25 160.785156 290.417969 161.558594 290.417969 C 162.5625 290.417969 163.6875 290.140625 164.8125 289.625 C 165.183594 289.453125 165.566406 289.363281 165.949219 289.363281 C 167.070312 289.363281 167.9375 290.132812 168.054688 291.234375 C 168.101562 291.636719 168.027344 292.074219 167.8125 292.546875 L 167.609375 293.019531 L 167.140625 293.234375 C 165.742188 293.875 164.335938 294.539062 162.835938 295.273438 L 162.65625 295.363281 L 162.457031 295.394531 C 161.835938 295.492188 161.214844 295.546875 160.621094 295.546875 " fill-opacity="1" fill-rule="nonzero"/><path fill="rgb(100%, 100%, 100%)" d="M 136.453125 310.351562 C 134.34375 310.351562 132.546875 309.675781 131.269531 308.398438 L 66.972656 244.152344 C 65.671875 242.855469 64.996094 241.035156 65.023438 238.890625 L 65.027344 237.988281 L 69.316406 236.261719 L 69.542969 237.992188 C 69.679688 239.03125 70.054688 239.867188 70.660156 240.472656 L 134.953125 304.71875 C 135.558594 305.320312 136.390625 305.691406 137.429688 305.832031 L 139.164062 306.058594 L 137.4375 310.34375 L 136.453125 310.351562 " fill-opacity="1" fill-rule="nonzero"/><path fill="rgb(100%, 100%, 100%)" d="M 69.691406 238.738281 C 69.882812 239.441406 70.203125 240.019531 70.660156 240.472656 L 134.953125 304.71875 C 135.398438 305.164062 135.976562 305.488281 136.667969 305.679688 C 136.066406 305.421875 135.527344 305.058594 135.070312 304.597656 L 70.777344 240.351562 C 70.3125 239.890625 69.949219 239.34375 69.691406 238.738281 Z M 138.117188 308.644531 L 137.082031 308.511719 C 135.457031 308.296875 134.0625 307.644531 133.039062 306.628906 L 68.746094 242.382812 C 67.726562 241.363281 67.074219 239.964844 66.863281 238.34375 L 66.726562 237.296875 L 67.359375 237.042969 L 69.882812 230.90625 L 70.097656 230.726562 L 70.632812 230.191406 L 71.414062 230.429688 C 71.742188 230.53125 72.027344 230.699219 72.25 230.925781 C 72.902344 231.574219 73.039062 232.589844 72.597656 233.5625 C 71.671875 235.554688 71.710938 237.46875 72.6875 238.441406 L 136.984375 302.6875 C 137.613281 303.320312 138.5 303.453125 139.132812 303.453125 C 139.96875 303.453125 140.917969 303.222656 141.859375 302.785156 C 143.160156 302.191406 144.5625 302.738281 144.972656 303.925781 L 145.382812 305.128906 L 138.375 308.011719 L 138.117188 308.644531 " fill-opacity="1" fill-rule="nonzero"/><path fill="rgb(100%, 100%, 100%)" d="M 117.207031 324.382812 C 115.226562 324.382812 113.535156 323.742188 112.324219 322.527344 L 52.832031 263.085938 C 51.347656 261.597656 50.71875 259.394531 51.070312 256.871094 L 51.328125 255.007812 L 53.261719 255.96875 L 54.378906 252.34375 L 55.414062 257.621094 C 55.566406 258.398438 55.890625 259.042969 56.382812 259.535156 L 115.878906 318.980469 C 116.359375 319.464844 117.007812 319.792969 117.796875 319.953125 L 122.746094 320.964844 L 119.421875 322.070312 L 120.402344 324.035156 L 118.535156 324.292969 C 118.089844 324.355469 117.640625 324.382812 117.207031 324.382812 " fill-opacity="1" fill-rule="nonzero"/><path fill="rgb(100%, 100%, 100%)" d="M 55.492188 257.945312 C 55.664062 258.582031 55.960938 259.113281 56.382812 259.535156 L 115.878906 318.980469 C 116.289062 319.394531 116.820312 319.691406 117.457031 319.871094 L 117.476562 319.867188 C 116.917969 319.625 116.417969 319.289062 115.992188 318.863281 L 56.5 259.414062 C 56.070312 258.984375 55.738281 258.484375 55.492188 257.925781 Z M 117.6875 322.648438 L 117.253906 322.601562 C 115.933594 322.332031 114.828125 321.753906 113.960938 320.890625 L 54.46875 261.445312 C 53.605469 260.578125 53.011719 259.4375 52.761719 258.136719 L 52.695312 257.804688 L 52.796875 257.472656 C 52.8125 257.421875 54.523438 252.15625 55.746094 250.636719 L 56.445312 249.765625 L 57.507812 250.1875 C 57.703125 250.289062 57.863281 250.40625 58 250.546875 C 58.664062 251.203125 58.796875 252.214844 58.347656 253.191406 C 57.53125 254.957031 57.558594 256.652344 58.414062 257.503906 L 117.90625 316.953125 C 118.453125 317.5 119.230469 317.613281 119.78125 317.613281 C 120.53125 317.613281 121.375 317.410156 122.222656 317.019531 C 123.40625 316.476562 124.675781 316.859375 125.207031 317.859375 L 125.761719 318.890625 L 124.816406 319.585938 C 123.640625 320.53125 120.480469 321.707031 118.03125 322.53125 L 117.6875 322.648438 " fill-opacity="1" fill-rule="nonzero"/><path fill="rgb(100%, 100%, 100%)" d="M 266.203125 212.273438 C 264.542969 212.273438 263.617188 212.773438 263.4375 213.269531 L 257.207031 230.386719 C 257.046875 230.835938 257.359375 231.5625 258.023438 232.292969 C 258.914062 233.265625 260.347656 234.164062 261.957031 234.75 C 263.21875 235.207031 264.492188 235.449219 265.636719 235.449219 C 267.296875 235.449219 268.222656 234.953125 268.402344 234.457031 L 274.632812 217.335938 C 274.742188 217.039062 274.621094 216.671875 274.503906 216.417969 C 274.046875 215.4375 272.5625 213.949219 269.882812 212.976562 C 268.625 212.519531 267.347656 212.273438 266.203125 212.273438 M 265.636719 238.152344 C 264.179688 238.152344 262.589844 237.855469 261.03125 237.292969 C 258.996094 236.546875 257.21875 235.417969 256.027344 234.109375 C 254.617188 232.570312 254.136719 230.917969 254.667969 229.460938 L 260.898438 212.34375 C 261.527344 210.609375 263.511719 209.574219 266.203125 209.574219 C 267.664062 209.574219 269.253906 209.871094 270.8125 210.4375 C 273.742188 211.5 276.035156 213.308594 276.953125 215.277344 C 277.433594 216.304688 277.507812 217.335938 277.171875 218.257812 L 270.941406 235.378906 C 270.3125 237.113281 268.328125 238.152344 265.636719 238.152344 " fill-opacity="1" fill-rule="nonzero"/><path fill="rgb(100%, 100%, 100%)" d="M 266.722656 213.023438 C 265.410156 213.023438 264.382812 213.421875 264.167969 214.007812 L 258.242188 230.285156 C 257.925781 231.160156 259.300781 233.105469 262.175781 234.148438 C 263.171875 234.511719 264.1875 234.703125 265.117188 234.703125 C 266.429688 234.703125 267.457031 234.304688 267.675781 233.710938 L 273.597656 217.441406 C 273.710938 217.125 273.597656 216.75 273.476562 216.492188 C 272.953125 215.371094 271.457031 214.226562 269.667969 213.578125 C 268.667969 213.214844 267.652344 213.023438 266.722656 213.023438 M 265.117188 237.402344 C 263.878906 237.402344 262.539062 237.15625 261.253906 236.6875 C 257.183594 235.210938 254.746094 231.996094 255.703125 229.363281 L 261.628906 213.085938 C 262.257812 211.355469 264.164062 210.320312 266.722656 210.320312 C 267.964844 210.320312 269.300781 210.570312 270.589844 211.035156 C 273.09375 211.945312 275.089844 213.554688 275.925781 215.351562 C 276.410156 216.382812 276.484375 217.425781 276.136719 218.367188 L 270.214844 234.632812 C 269.585938 236.371094 267.675781 237.402344 265.117188 237.402344 " fill-opacity="1" fill-rule="nonzero"/><path fill="rgb(100%, 100%, 100%)" d="M 266.410156 214.105469 C 265.199219 214.105469 264.222656 214.46875 264.03125 214.988281 L 258.691406 229.667969 C 258.398438 230.476562 259.730469 232.292969 262.488281 233.292969 C 263.457031 233.648438 264.453125 233.835938 265.351562 233.835938 C 266.5625 233.835938 267.535156 233.472656 267.726562 232.953125 L 273.070312 218.273438 C 273.367188 217.464844 272.035156 215.644531 269.277344 214.644531 C 268.304688 214.292969 267.3125 214.105469 266.410156 214.105469 M 265.351562 236.539062 C 264.136719 236.539062 262.828125 236.296875 261.5625 235.835938 C 257.542969 234.375 255.210938 231.328125 256.148438 228.746094 L 261.492188 214.066406 C 262.097656 212.398438 263.9375 211.402344 266.410156 211.402344 C 267.628906 211.402344 268.9375 211.644531 270.207031 212.109375 C 274.222656 213.566406 276.550781 216.613281 275.617188 219.195312 L 270.269531 233.878906 C 269.660156 235.542969 267.824219 236.539062 265.351562 236.539062 " fill-opacity="1" fill-rule="nonzero"/><path fill="rgb(100%, 100%, 100%)" d="M 269.75 235.285156 L 269.425781 235.167969 C 269.804688 234.800781 270.089844 234.371094 270.269531 233.878906 L 270.335938 233.699219 L 269.75 235.285156 " fill-opacity="1" fill-rule="nonzero"/><path fill="rgb(100%, 100%, 100%)" d="M 265.726562 233.824219 L 264.960938 233.546875 L 265.542969 231.953125 L 267.792969 232.773438 L 267.726562 232.953125 C 267.558594 233.417969 266.757812 233.757812 265.726562 233.824219 " fill-opacity="1" fill-rule="nonzero"/><path fill="rgb(100%, 100%, 100%)" d="M 269.425781 235.167969 L 265.726562 233.824219 C 266.757812 233.757812 267.558594 233.417969 267.726562 232.953125 L 267.792969 232.773438 L 270.335938 233.699219 L 270.269531 233.878906 C 270.089844 234.371094 269.804688 234.800781 269.425781 235.167969 " fill-opacity="1" fill-rule="nonzero"/><path fill="rgb(100%, 100%, 100%)" d="M 270.609375 232.945312 L 270.910156 232.117188 L 270.914062 232.117188 L 270.609375 232.945312 " fill-opacity="1" fill-rule="nonzero"/><path fill="rgb(100%, 100%, 100%)" d="M 270.335938 233.699219 L 270.917969 232.101562 L 270.910156 232.117188 L 270.609375 232.945312 L 270.335938 233.699219 " fill-opacity="1" fill-rule="nonzero"/><path fill="rgb(100%, 100%, 100%)" d="M 267.792969 232.773438 L 265.542969 231.953125 L 265.535156 231.953125 L 266.226562 230.085938 L 266.125 230.367188 L 268.375 231.179688 L 267.792969 232.773438 " fill-opacity="1" fill-rule="nonzero"/><path fill="rgb(100%, 100%, 100%)" d="M 270.335938 233.699219 L 267.792969 232.773438 L 268.375 231.179688 L 270.917969 232.101562 L 270.335938 233.699219 " fill-opacity="1" fill-rule="nonzero"/><path fill="rgb(100%, 100%, 100%)" d="M 270.917969 232.101562 L 272.066406 228.933594 L 272.070312 228.933594 L 270.917969 232.101562 " fill-opacity="1" fill-rule="nonzero"/><path fill="rgb(100%, 100%, 100%)" d="M 268.375 231.179688 L 266.125 230.367188 L 266.226562 230.085938 L 267.277344 227.191406 L 266.707031 228.769531 L 268.953125 229.585938 L 268.375 231.179688 " fill-opacity="1" fill-rule="nonzero"/><path fill="rgb(100%, 100%, 100%)" d="M 270.917969 232.101562 L 268.375 231.179688 L 268.953125 229.585938 L 271.492188 230.511719 L 272.066406 228.933594 L 270.917969 232.101562 " fill-opacity="1" fill-rule="nonzero"/><path fill="rgb(100%, 100%, 100%)" d="M 268.953125 229.585938 L 266.707031 228.769531 L 267.277344 227.191406 L 267.28125 227.183594 L 269.53125 227.996094 L 268.953125 229.585938 " fill-opacity="1" fill-rule="nonzero"/><path fill="rgb(100%, 100%, 100%)" d="M 271.492188 230.511719 L 268.953125 229.585938 L 269.53125 227.996094 L 272.070312 228.921875 L 272.570312 227.550781 L 272.066406 228.933594 L 271.492188 230.511719 " fill-opacity="1" fill-rule="nonzero"/><path fill="rgb(100%, 100%, 100%)" d="M 267.5625 226.398438 L 267.855469 225.59375 L 267.855469 225.597656 L 267.5625 226.398438 " fill-opacity="1" fill-rule="nonzero"/><path fill="rgb(100%, 100%, 100%)" d="M 269.53125 227.996094 L 267.28125 227.183594 L 267.28125 227.179688 L 267.5625 226.398438 L 267.855469 225.597656 L 267.863281 225.585938 L 270.113281 226.402344 L 269.53125 227.996094 " fill-opacity="1" fill-rule="nonzero"/><path fill="rgb(100%, 100%, 100%)" d="M 272.070312 228.921875 L 269.53125 227.996094 L 270.113281 226.402344 L 272.652344 227.328125 L 273.230469 225.746094 L 272.570312 227.550781 L 272.070312 228.921875 " fill-opacity="1" fill-rule="nonzero"/><path fill="rgb(100%, 100%, 100%)" d="M 268.417969 224.050781 L 268.4375 224.003906 L 268.417969 224.050781 " fill-opacity="1" fill-rule="nonzero"/><path fill="rgb(100%, 100%, 100%)" d="M 270.113281 226.402344 L 267.863281 225.585938 L 267.855469 225.582031 L 268.417969 224.050781 L 268.4375 224.003906 L 268.535156 223.738281 L 268.445312 223.988281 L 270.695312 224.808594 L 270.113281 226.402344 " fill-opacity="1" fill-rule="nonzero"/><path fill="rgb(100%, 100%, 100%)" d="M 273.464844 225.097656 L 273.8125 224.152344 L 273.464844 225.097656 " fill-opacity="1" fill-rule="nonzero"/><path fill="rgb(100%, 100%, 100%)" d="M 272.652344 227.328125 L 270.113281 226.402344 L 270.695312 224.808594 L 273.226562 225.734375 L 273.808594 224.152344 L 273.8125 224.152344 L 273.464844 225.097656 L 273.230469 225.746094 L 272.652344 227.328125 " fill-opacity="1" fill-rule="nonzero"/><path fill="rgb(100%, 100%, 100%)" d="M 270.695312 224.808594 L 268.445312 223.988281 L 268.535156 223.738281 L 269.453125 221.21875 L 269.027344 222.402344 L 271.273438 223.21875 L 270.695312 224.808594 " fill-opacity="1" fill-rule="nonzero"/><path fill="rgb(100%, 100%, 100%)" d="M 274.003906 223.617188 L 274.386719 222.5625 L 274.390625 222.5625 L 274.003906 223.617188 " fill-opacity="1" fill-rule="nonzero"/><path fill="rgb(100%, 100%, 100%)" d="M 273.226562 225.734375 L 270.695312 224.808594 L 271.273438 223.21875 L 273.8125 224.136719 L 274.386719 222.5625 L 274.003906 223.617188 L 273.808594 224.152344 L 273.226562 225.734375 " fill-opacity="1" fill-rule="nonzero"/><path fill="rgb(100%, 100%, 100%)" d="M 271.273438 223.21875 L 269.027344 222.402344 L 269.453125 221.21875 L 270.175781 219.226562 L 269.605469 220.808594 L 271.851562 221.625 L 271.273438 223.21875 " fill-opacity="1" fill-rule="nonzero"/><path fill="rgb(100%, 100%, 100%)" d="M 274.417969 222.492188 L 274.96875 220.972656 L 274.972656 220.972656 L 274.417969 222.492188 " fill-opacity="1" fill-rule="nonzero"/><path fill="rgb(100%, 100%, 100%)" d="M 273.8125 224.136719 L 271.273438 223.21875 L 271.851562 221.625 L 274.390625 222.546875 L 274.964844 220.972656 L 274.96875 220.972656 L 274.417969 222.492188 L 274.386719 222.5625 L 273.8125 224.136719 " fill-opacity="1" fill-rule="nonzero"/><path fill="rgb(100%, 100%, 100%)" d="M 271.851562 221.625 L 269.605469 220.808594 L 270.175781 219.226562 L 270.753906 217.632812 L 270.757812 217.632812 L 270.183594 219.214844 L 272.433594 220.03125 L 271.851562 221.625 " fill-opacity="1" fill-rule="nonzero"/><path fill="rgb(100%, 100%, 100%)" d="M 274.390625 222.546875 L 271.851562 221.625 L 272.433594 220.03125 L 274.972656 220.953125 L 274.964844 220.972656 L 274.390625 222.546875 M 275.496094 219.515625 L 275.546875 219.375 L 275.496094 219.515625 " fill-opacity="1" fill-rule="nonzero"/><path fill="rgb(100%, 100%, 100%)" d="M 274.980469 220.953125 L 274.976562 220.953125 L 275.269531 220.148438 L 274.980469 220.953125 " fill-opacity="1" fill-rule="nonzero"/><path fill="rgb(100%, 100%, 100%)" d="M 272.433594 220.03125 L 270.183594 219.214844 L 270.757812 217.632812 L 271.335938 216.042969 L 272.117188 216.328125 C 272.902344 217.078125 273.234375 217.828125 273.070312 218.273438 L 272.433594 220.03125 " fill-opacity="1" fill-rule="nonzero"/><path fill="rgb(100%, 100%, 100%)" d="M 275.664062 219.058594 C 275.808594 218.605469 275.847656 218.136719 275.804688 217.667969 L 276.121094 217.785156 L 275.664062 219.058594 " fill-opacity="1" fill-rule="nonzero"/><path fill="rgb(100%, 100%, 100%)" d="M 274.976562 220.953125 L 274.972656 220.953125 L 272.433594 220.03125 L 273.070312 218.273438 C 273.234375 217.828125 272.902344 217.078125 272.117188 216.328125 L 275.804688 217.667969 C 275.847656 218.136719 275.808594 218.605469 275.664062 219.058594 L 275.546875 219.375 L 275.496094 219.515625 L 275.269531 220.148438 L 274.976562 220.953125 " fill-opacity="1" fill-rule="nonzero"/><path fill="rgb(100%, 100%, 100%)" d="M 224.972656 260.742188 C 224.878906 260.742188 224.792969 260.753906 224.710938 260.789062 L 207.578125 267.015625 C 206.632812 267.363281 206.042969 270.039062 207.285156 273.457031 C 208.457031 276.664062 210.605469 278.574219 211.65625 278.203125 L 228.78125 271.96875 C 229.734375 271.621094 230.320312 268.941406 229.078125 265.53125 C 228 262.570312 226.105469 260.742188 224.972656 260.742188 M 211.394531 280.949219 C 208.847656 280.949219 206.175781 278.308594 204.746094 274.378906 C 203.058594 269.746094 203.878906 265.488281 206.65625 264.472656 L 223.785156 258.246094 C 224.164062 258.109375 224.5625 258.039062 224.972656 258.039062 C 227.515625 258.039062 230.1875 260.679688 231.617188 264.605469 C 233.308594 269.238281 232.488281 273.496094 229.707031 274.503906 L 212.578125 280.742188 C 212.203125 280.878906 211.804688 280.949219 211.394531 280.949219 " fill-opacity="1" fill-rule="nonzero"/><path fill="rgb(100%, 100%, 100%)" d="M 224.886719 261.773438 C 224.785156 261.773438 224.695312 261.785156 224.605469 261.820312 L 208.324219 267.742188 C 207.898438 267.902344 207.558594 268.496094 207.414062 269.335938 C 207.21875 270.457031 207.390625 271.878906 207.886719 273.234375 C 208.871094 275.9375 210.78125 277.507812 211.757812 277.164062 L 228.039062 271.242188 C 228.917969 270.925781 229.519531 268.625 228.476562 265.75 C 227.582031 263.292969 225.917969 261.773438 224.886719 261.773438 M 211.472656 279.914062 C 209.0625 279.914062 206.597656 277.601562 205.347656 274.160156 C 204.6875 272.347656 204.472656 270.472656 204.746094 268.878906 C 205.0625 267.042969 206.03125 265.703125 207.402344 265.207031 L 223.683594 259.28125 C 224.066406 259.140625 224.472656 259.070312 224.886719 259.070312 C 227.300781 259.070312 229.761719 261.382812 231.015625 264.824219 C 232.492188 268.890625 231.59375 272.824219 228.960938 273.78125 L 212.679688 279.703125 C 212.296875 279.84375 211.886719 279.914062 211.472656 279.914062 " fill-opacity="1" fill-rule="nonzero"/><path fill="rgb(100%, 100%, 100%)" d="M 224.015625 262.308594 C 223.925781 262.308594 223.847656 262.320312 223.777344 262.347656 L 209.082031 267.691406 C 208.703125 267.828125 208.398438 268.382812 208.269531 269.171875 C 208.09375 270.25 208.265625 271.617188 208.742188 272.929688 C 209.679688 275.507812 211.484375 277.039062 212.375 276.71875 L 227.066406 271.378906 C 227.445312 271.238281 227.746094 270.683594 227.882812 269.894531 C 228.058594 268.820312 227.882812 267.453125 227.40625 266.140625 C 226.542969 263.769531 224.972656 262.308594 224.015625 262.308594 M 212.136719 279.464844 C 209.808594 279.464844 207.421875 277.207031 206.203125 273.855469 C 205.5625 272.09375 205.347656 270.277344 205.597656 268.730469 C 205.894531 266.941406 206.828125 265.636719 208.160156 265.148438 L 222.847656 259.808594 C 223.21875 259.671875 223.609375 259.605469 224.015625 259.605469 C 226.34375 259.605469 228.726562 261.859375 229.949219 265.21875 C 230.589844 266.972656 230.800781 268.792969 230.546875 270.332031 C 230.25 272.128906 229.320312 273.433594 227.992188 273.914062 L 213.300781 279.257812 C 212.929688 279.394531 212.539062 279.464844 212.136719 279.464844 " fill-opacity="1" fill-rule="nonzero"/><path fill="rgb(100%, 100%, 100%)" d="M 211.882812 279.769531 L 211.769531 279.441406 C 211.890625 279.457031 212.011719 279.464844 212.136719 279.464844 C 212.527344 279.464844 212.910156 279.394531 213.269531 279.269531 L 211.882812 279.769531 M 213.339844 279.246094 L 214.777344 278.722656 L 215.058594 278.617188 L 215.058594 278.621094 L 213.339844 279.246094 " fill-opacity="1" fill-rule="nonzero"/><path fill="rgb(100%, 100%, 100%)" d="M 212.121094 276.761719 C 211.652344 276.761719 211.03125 276.402344 210.421875 275.753906 L 210.144531 274.988281 L 211.742188 274.402344 L 212.554688 276.65625 L 212.375 276.71875 C 212.296875 276.746094 212.210938 276.761719 212.121094 276.761719 " fill-opacity="1" fill-rule="nonzero"/><path fill="rgb(100%, 100%, 100%)" d="M 212.136719 279.464844 C 212.011719 279.464844 211.890625 279.457031 211.769531 279.441406 L 210.421875 275.753906 C 211.03125 276.402344 211.652344 276.761719 212.121094 276.761719 C 212.210938 276.761719 212.296875 276.746094 212.375 276.71875 L 212.554688 276.65625 L 213.472656 279.191406 L 214.777344 278.722656 L 213.339844 279.246094 L 213.269531 279.269531 C 212.910156 279.394531 212.527344 279.464844 212.136719 279.464844 " fill-opacity="1" fill-rule="nonzero"/><path fill="rgb(100%, 100%, 100%)" d="M 212.71875 274.042969 L 213.3125 273.828125 L 213.3125 273.832031 L 212.71875 274.042969 " fill-opacity="1" fill-rule="nonzero"/><path fill="rgb(100%, 100%, 100%)" d="M 214.777344 278.722656 L 215.074219 278.613281 L 215.074219 278.617188 L 215.058594 278.617188 L 214.777344 278.722656 " fill-opacity="1" fill-rule="nonzero"/><path fill="rgb(100%, 100%, 100%)" d="M 212.554688 276.65625 L 211.742188 274.402344 L 211.738281 274.398438 L 212.71875 274.042969 L 213.3125 273.832031 L 213.992188 273.585938 L 213.328125 273.832031 L 214.148438 276.074219 L 212.554688 276.65625 " fill-opacity="1" fill-rule="nonzero"/><path fill="rgb(100%, 100%, 100%)" d="M 213.472656 279.191406 L 212.554688 276.65625 L 214.148438 276.074219 L 215.074219 278.613281 L 214.777344 278.722656 L 213.472656 279.191406 " fill-opacity="1" fill-rule="nonzero"/><path fill="rgb(100%, 100%, 100%)" d="M 216.007812 278.277344 L 216.652344 278.042969 L 216.007812 278.277344 " fill-opacity="1" fill-rule="nonzero"/><path fill="rgb(100%, 100%, 100%)" d="M 215.078125 278.617188 L 215.074219 278.617188 L 215.074219 278.613281 L 216.988281 277.917969 L 216.652344 278.042969 L 216.007812 278.277344 L 215.078125 278.617188 " fill-opacity="1" fill-rule="nonzero"/><path fill="rgb(100%, 100%, 100%)" d="M 214.148438 276.074219 L 213.328125 273.832031 L 213.992188 273.585938 L 214.917969 273.246094 L 215.742188 275.496094 L 214.148438 276.074219 " fill-opacity="1" fill-rule="nonzero"/><path fill="rgb(100%, 100%, 100%)" d="M 215.074219 278.613281 L 214.148438 276.074219 L 215.742188 275.496094 L 216.667969 278.03125 L 217.839844 277.605469 L 216.988281 277.917969 L 215.074219 278.613281 " fill-opacity="1" fill-rule="nonzero"/><path fill="rgb(100%, 100%, 100%)" d="M 215.277344 273.117188 L 216.5 272.664062 L 216.503906 272.671875 L 215.277344 273.117188 " fill-opacity="1" fill-rule="nonzero"/><path fill="rgb(100%, 100%, 100%)" d="M 218.742188 277.277344 L 219.839844 276.878906 L 219.84375 276.878906 L 218.742188 277.277344 " fill-opacity="1" fill-rule="nonzero"/><path fill="rgb(100%, 100%, 100%)" d="M 215.742188 275.496094 L 214.917969 273.246094 L 215.277344 273.117188 L 216.503906 272.671875 L 216.515625 272.667969 L 217.335938 274.917969 L 215.742188 275.496094 " fill-opacity="1" fill-rule="nonzero"/><path fill="rgb(100%, 100%, 100%)" d="M 216.667969 278.03125 L 215.742188 275.496094 L 217.335938 274.917969 L 218.257812 277.445312 L 219.839844 276.878906 L 218.742188 277.277344 L 217.839844 277.605469 L 216.667969 278.03125 " fill-opacity="1" fill-rule="nonzero"/><path fill="rgb(100%, 100%, 100%)" d="M 219.96875 276.832031 L 221.433594 276.300781 L 221.433594 276.308594 L 219.96875 276.832031 " fill-opacity="1" fill-rule="nonzero"/><path fill="rgb(100%, 100%, 100%)" d="M 217.335938 274.917969 L 216.515625 272.667969 L 216.511719 272.660156 L 218.898438 271.800781 L 218.109375 272.089844 L 218.925781 274.335938 L 217.335938 274.917969 " fill-opacity="1" fill-rule="nonzero"/><path fill="rgb(100%, 100%, 100%)" d="M 218.257812 277.445312 L 217.335938 274.917969 L 218.925781 274.335938 L 219.851562 276.871094 L 221.433594 276.300781 L 219.96875 276.832031 L 219.839844 276.878906 L 218.257812 277.445312 " fill-opacity="1" fill-rule="nonzero"/><path fill="rgb(100%, 100%, 100%)" d="M 221.894531 276.132812 L 223.027344 275.71875 L 223.027344 275.722656 L 221.894531 276.132812 " fill-opacity="1" fill-rule="nonzero"/><path fill="rgb(100%, 100%, 100%)" d="M 218.925781 274.335938 L 218.109375 272.089844 L 218.898438 271.800781 L 219.707031 271.507812 L 220.527344 273.757812 L 218.925781 274.335938 " fill-opacity="1" fill-rule="nonzero"/><path fill="rgb(100%, 100%, 100%)" d="M 219.851562 276.871094 L 218.925781 274.335938 L 220.527344 273.757812 L 221.449219 276.289062 L 223.027344 275.71875 L 221.894531 276.132812 L 221.433594 276.300781 L 219.851562 276.871094 " fill-opacity="1" fill-rule="nonzero"/><path fill="rgb(100%, 100%, 100%)" d="M 220.527344 273.757812 L 219.707031 271.507812 L 219.707031 271.503906 L 222.273438 270.570312 L 221.292969 270.929688 L 222.117188 273.175781 L 220.527344 273.757812 " fill-opacity="1" fill-rule="nonzero"/><path fill="rgb(100%, 100%, 100%)" d="M 221.449219 276.289062 L 220.527344 273.757812 L 222.117188 273.175781 L 223.042969 275.710938 L 223.027344 275.71875 L 221.449219 276.289062 " fill-opacity="1" fill-rule="nonzero"/><path fill="rgb(100%, 100%, 100%)" d="M 224.136719 275.320312 L 224.464844 275.195312 L 224.625 275.140625 L 224.136719 275.320312 " fill-opacity="1" fill-rule="nonzero"/><path fill="rgb(100%, 100%, 100%)" d="M 224.464844 275.195312 L 224.625 275.140625 L 224.464844 275.195312 " fill-opacity="1" fill-rule="nonzero"/><path fill="rgb(100%, 100%, 100%)" d="M 223.046875 275.71875 L 223.042969 275.710938 L 224.464844 275.195312 L 224.136719 275.320312 L 223.046875 275.71875 " fill-opacity="1" fill-rule="nonzero"/><path fill="rgb(100%, 100%, 100%)" d="M 222.117188 273.175781 L 221.292969 270.929688 L 222.273438 270.570312 L 224.019531 269.9375 L 222.894531 270.351562 L 223.710938 272.59375 L 222.117188 273.175781 " fill-opacity="1" fill-rule="nonzero"/><path fill="rgb(100%, 100%, 100%)" d="M 223.042969 275.710938 L 222.117188 273.175781 L 223.710938 272.59375 L 224.632812 275.128906 L 225.675781 274.753906 L 224.625 275.140625 L 224.464844 275.195312 L 223.042969 275.710938 " fill-opacity="1" fill-rule="nonzero"/><path fill="rgb(100%, 100%, 100%)" d="M 223.710938 272.59375 L 222.894531 270.351562 L 224.019531 269.9375 L 226.0625 269.1875 L 226.0625 269.191406 L 224.484375 269.769531 L 225.304688 272.019531 L 223.710938 272.59375 " fill-opacity="1" fill-rule="nonzero"/><path fill="rgb(100%, 100%, 100%)" d="M 224.632812 275.128906 L 223.710938 272.59375 L 225.304688 272.019531 L 226.230469 274.554688 L 225.675781 274.753906 L 224.632812 275.128906 " fill-opacity="1" fill-rule="nonzero"/><path fill="rgb(100%, 100%, 100%)" d="M 227.027344 274.265625 L 227.300781 274.164062 L 227.808594 273.980469 L 227.808594 273.984375 L 227.027344 274.265625 " fill-opacity="1" fill-rule="nonzero"/><path fill="rgb(100%, 100%, 100%)" d="M 227.300781 274.164062 L 227.808594 273.980469 L 227.300781 274.164062 " fill-opacity="1" fill-rule="nonzero"/><path fill="rgb(100%, 100%, 100%)" d="M 226.234375 274.558594 L 226.230469 274.554688 L 227.300781 274.164062 L 227.027344 274.265625 L 226.234375 274.558594 M 228.082031 273.878906 C 228.53125 273.699219 228.933594 273.425781 229.277344 273.070312 L 229.398438 273.398438 L 228.082031 273.878906 " fill-opacity="1" fill-rule="nonzero"/><path fill="rgb(100%, 100%, 100%)" d="M 225.304688 272.019531 L 224.484375 269.769531 L 226.0625 269.191406 L 227.660156 268.613281 L 227.9375 269.371094 C 227.925781 269.550781 227.90625 269.726562 227.882812 269.894531 C 227.746094 270.683594 227.445312 271.238281 227.066406 271.378906 L 225.304688 272.019531 " fill-opacity="1" fill-rule="nonzero"/><path fill="rgb(100%, 100%, 100%)" d="M 226.230469 274.554688 L 225.304688 272.019531 L 227.066406 271.378906 C 227.445312 271.238281 227.746094 270.683594 227.882812 269.894531 C 227.90625 269.726562 227.925781 269.550781 227.9375 269.371094 L 229.277344 273.070312 C 228.933594 273.425781 228.53125 273.699219 228.082031 273.878906 L 227.808594 273.980469 L 227.300781 274.164062 L 226.230469 274.554688 " fill-opacity="1" fill-rule="nonzero"/><path fill="rgb(100%, 100%, 100%)" d="M 188.117188 100.976562 C 165.089844 100.976562 143.441406 109.933594 127.15625 126.207031 C 93.542969 159.792969 93.546875 214.441406 127.160156 248.03125 C 143.441406 264.296875 165.09375 273.261719 188.117188 273.261719 C 211.144531 273.261719 232.792969 264.300781 249.074219 248.03125 C 282.6875 214.445312 282.6875 159.792969 249.074219 126.207031 C 232.792969 109.933594 211.140625 100.976562 188.117188 100.976562 Z M 188.117188 275.960938 C 164.367188 275.960938 142.039062 266.722656 125.242188 249.941406 C 90.578125 215.300781 90.578125 158.933594 125.242188 124.296875 C 142.035156 107.515625 164.367188 98.273438 188.117188 98.273438 C 211.863281 98.273438 234.195312 107.511719 250.988281 124.296875 C 285.652344 158.933594 285.652344 215.300781 250.988281 249.945312 C 234.195312 266.722656 211.867188 275.960938 188.117188 275.960938 " fill-opacity="1" fill-rule="nonzero"/><path fill="rgb(100%, 100%, 100%)" d="M 188.113281 104.410156 C 166.003906 104.410156 145.21875 113.011719 129.585938 128.632812 C 97.3125 160.882812 97.3125 213.355469 129.589844 245.601562 C 145.21875 261.222656 166.007812 269.828125 188.117188 269.828125 C 210.226562 269.828125 231.011719 261.222656 246.640625 245.601562 C 262.277344 229.984375 270.886719 209.210938 270.886719 187.121094 C 270.886719 165.027344 262.277344 144.257812 246.640625 128.632812 C 231.011719 113.011719 210.222656 104.410156 188.113281 104.410156 Z M 188.117188 272.527344 C 165.28125 272.527344 143.816406 263.644531 127.675781 247.511719 C 94.347656 214.210938 94.347656 160.027344 127.671875 126.722656 C 143.816406 110.589844 165.28125 101.707031 188.113281 101.707031 C 210.949219 101.707031 232.414062 110.589844 248.554688 126.722656 C 264.699219 142.855469 273.59375 164.304688 273.59375 187.121094 C 273.59375 209.933594 264.699219 231.378906 248.554688 247.511719 C 232.414062 263.644531 210.949219 272.527344 188.117188 272.527344 " fill-opacity="1" fill-rule="nonzero"/><path fill="rgb(100%, 100%, 100%)" d="M 188.117188 108.980469 C 167.230469 108.980469 147.59375 117.109375 132.820312 131.867188 C 102.332031 162.332031 102.332031 211.90625 132.820312 242.371094 C 147.589844 257.132812 167.226562 265.257812 188.113281 265.257812 C 209 265.257812 228.636719 257.132812 243.410156 242.371094 C 258.179688 227.617188 266.3125 207.992188 266.3125 187.117188 C 266.3125 166.246094 258.179688 146.625 243.410156 131.863281 C 228.640625 117.109375 209.003906 108.980469 188.117188 108.980469 Z M 188.113281 267.960938 C 166.503906 267.960938 146.1875 259.550781 130.910156 244.28125 C 99.363281 212.761719 99.363281 161.476562 130.910156 129.957031 C 146.191406 114.6875 166.507812 106.277344 188.117188 106.277344 C 209.726562 106.277344 230.042969 114.6875 245.320312 129.953125 C 260.601562 145.222656 269.019531 165.523438 269.019531 187.117188 C 269.019531 208.710938 260.601562 229.011719 245.320312 244.28125 C 230.039062 259.550781 209.722656 267.960938 188.113281 267.960938 " fill-opacity="1" fill-rule="nonzero"/><g fill="rgb(100%, 100%, 100%)" fill-opacity="1"><g transform="translate(166.755756, 240.904832)"><g><path d="M 78.707031 -34.828125 C 78.195312 -54.460938 62.65625 -69.65625 43.195312 -69.65625 C 23.558594 -69.65625 7.683594 -53.78125 7.683594 -34.144531 C 7.683594 -14.511719 23.558594 1.367188 43.195312 1.367188 C 59.414062 1.367188 72.902344 -9.390625 77.339844 -24.074219 L 66.070312 -24.074219 C 62.316406 -15.195312 53.4375 -9.21875 43.195312 -9.21875 C 29.707031 -9.21875 18.949219 -19.464844 18.269531 -32.609375 L 78.535156 -32.609375 Z M 43.195312 -59.070312 C 54.121094 -59.070312 63.339844 -52.070312 66.582031 -42.167969 L 19.632812 -42.167969 C 23.046875 -52.070312 32.269531 -59.070312 43.195312 -59.070312 Z M 43.195312 -59.070312 "/></g></g></g><g fill="rgb(100%, 100%, 100%)" fill-opacity="1"><g transform="translate(123.866165, 202.109152)"><g><path d="M 78.707031 -34.828125 C 78.195312 -54.460938 62.65625 -69.65625 43.195312 -69.65625 C 23.558594 -69.65625 7.683594 -53.78125 7.683594 -34.144531 C 7.683594 -14.511719 23.558594 1.367188 43.195312 1.367188 C 59.414062 1.367188 72.902344 -9.390625 77.339844 -24.074219 L 66.070312 -24.074219 C 62.316406 -15.195312 53.4375 -9.21875 43.195312 -9.21875 C 29.707031 -9.21875 18.949219 -19.464844 18.269531 -32.609375 L 78.535156 -32.609375 Z M 43.195312 -59.070312 C 54.121094 -59.070312 63.339844 -52.070312 66.582031 -42.167969 L 19.632812 -42.167969 C 23.046875 -52.070312 32.269531 -59.070312 43.195312 -59.070312 Z M 43.195312 -59.070312 "/></g></g></g></svg>