<svg data-v-73ae21c6="" xmlns="http://www.w3.org/2000/svg" width="200" height="200" viewBox="0 0 264 280" aria-labelledby="avatar" role="avatar"><title data-v-73ae21c6="" id="avatar" lang="en"> avatar </title><g data-v-0ba2a0ae="" data-v-73ae21c6="" id="background" fill="#65C9FF"><!----></g><g data-v-ec281f06="" data-v-73ae21c6="" id="body" transform="translate(32.000000, 36.000000)"><path data-v-ec281f06="" d="M124,144.610951 L124,163 L128,163 L128,163 C167.764502,163 200,195.235498 200,235 L200,244 L0,244 L0,235 C-4.86974701e-15,195.235498 32.235498,163 72,163 L72,163 L76,163 L76,144.610951 C58.7626345,136.422372 46.3722246,119.687011 44.3051388,99.8812385 C38.4803105,99.0577866 34,94.0521096 34,88 L34,74 C34,68.0540074 38.3245733,63.1180731 44,62.1659169 L44,56 L44,56 C44,25.072054 69.072054,5.68137151e-15 100,0 L100,0 L100,0 C130.927946,-5.68137151e-15 156,25.072054 156,56 L156,62.1659169 C161.675427,63.1180731 166,68.0540074 166,74 L166,88 C166,94.0521096 161.51969,99.0577866 155.694861,99.8812385 C153.627775,119.687011 141.237365,136.422372 124,144.610951 Z" fill="#EDB98A"/><g data-v-ec281f06="" id="neck-shadow"><mask data-v-ec281f06="" id="neck-shadow-mask"><path data-v-ec281f06="" d="M124,144.610951 L124,163 L128,163 L128,163 C167.764502,163 200,195.235498 200,235 L200,244 L0,244 L0,235 C-4.86974701e-15,195.235498 32.235498,163 72,163 L72,163 L76,163 L76,144.610951 C58.7626345,136.422372 46.3722246,119.687011 44.3051388,99.8812385 C38.4803105,99.0577866 34,94.0521096 34,88 L34,74 C34,68.0540074 38.3245733,63.1180731 44,62.1659169 L44,56 L44,56 C44,25.072054 69.072054,5.68137151e-15 100,0 L100,0 L100,0 C130.927946,-5.68137151e-15 156,25.072054 156,56 L156,62.1659169 C161.675427,63.1180731 166,68.0540074 166,74 L166,88 C166,94.0521096 161.51969,99.0577866 155.694861,99.8812385 C153.627775,119.687011 141.237365,136.422372 124,144.610951 Z" fill="white"/></mask><path data-v-ec281f06="" mask="url(#neck-shadow-mask)" d="M156,79 L156,102 C156,132.927946 130.927946,158 100,158 C69.072054,158 44,132.927946 44,102 L44,79 L44,94 C44,124.927946 69.072054,150 100,150 C130.927946,150 156,124.927946 156,94 L156,79 Z" fill="#000000" fill-opacity="0.100000001"/></g></g><g data-v-cf7ca7ae="" data-v-73ae21c6="" id="clothes" transform="translate(0.000000, 170.000000)"><mask data-v-cf7ca7ae="" id="shadowy-mask"><path data-v-cf7ca7ae="" d="M108,13.0708856 C90.0813006,15.075938 76.2798424,20.5518341 76.004203,34.6449676 C50.1464329,45.5680933 32,71.1646257 32,100.999485 L32,100.999485 L32,110 L232,110 L232,100.999485 C232,71.1646257 213.853567,45.5680933 187.995797,34.6449832 C187.720158,20.5518341 173.918699,15.075938 156,13.0708856 L156,32 L156,32 C156,45.254834 145.254834,56 132,56 L132,56 C118.745166,56 108,45.254834 108,32 L108,13.0708856 Z" transform="translate(0, 0)" fill="white"/></mask><g data-v-cf7ca7ae="" id="hoodie"><path data-v-cf7ca7ae="" transform="translate(0, 0)" fill="#B1E2FF" d="M108,13.0708856 C90.0813006,15.075938 76.2798424,20.5518341 76.004203,34.6449676 C50.1464329,45.5680933 32,71.1646257 32,100.999485 L32,100.999485 L32,110 L232,110 L232,100.999485 C232,71.1646257 213.853567,45.5680933 187.995797,34.6449832 C187.720158,20.5518341 173.918699,15.075938 156,13.0708856 L156,32 L156,32 C156,45.254834 145.254834,56 132,56 L132,56 C118.745166,56 108,45.254834 108,32 L108,13.0708856 Z"/></g><g data-v-cf7ca7ae="" id="straps"><path data-v-cf7ca7ae="" transform="translate(0, 0)" fill="#F4F4F4" fill-rule="evenodd" mask="url(#shadowy-mask)" d="M102,61.7390531 L102,110 L95,110 L95,58.1502625 C97.2037542,59.4600576 99.5467694,60.6607878 102,61.7390531 Z M169,58.1502625 L169,98.5 C169,100.432997 167.432997,102 165.5,102 C163.567003,102 162,100.432997 162,98.5 L162,61.7390531 C164.453231,60.6607878 166.796246,59.4600576 169,58.1502625 Z"/></g><g data-v-cf7ca7ae="" id="hoodie-shadow"><path data-v-cf7ca7ae="" transform="translate(263, 0) scale(-1, 1)" fill-opacity="0.16" fill="#000000" fill-rule="evenodd" mask="url(#shadowy-mask)" d="M90.9601329,12.7243537 C75.9093095,15.5711782 65.5,21.2428847 65.5,32.3076923 C65.5,52.0200095 98.5376807,68 132,68 C165.462319,68 198.5,52.0200095 198.5,32.3076923 C198.5,21.2428847 188.09069,15.5711782 173.039867,12.7243537 C182.124921,16.0744598 188,21.7060546 188,31.0769231 C188,51.4689754 160.178795,68 132,68 C103.821205,68 76,51.4689754 76,31.0769231 C76,21.7060546 81.8750795,16.0744598 90.9601329,12.7243537 Z"/></g></g><g data-v-3394ada4="" data-v-73ae21c6="" id="face" transform="translate(76.000000, 82.000000)"><g data-v-7e537661="" data-v-3394ada4="" id="eyes" transform="translate(0.000000, 8.000000)"><g data-v-7e537661="" id="eye-a"><circle data-v-7e537661="" transform="translate(0, 0)" fill-opacity="0.699999988" fill="#000000" cx="30" cy="22" r="6"/></g><g data-v-7e537661="" id="eye-b"><path data-v-7e537661="" transform="translate(2, 0)" fill-opacity="0.699999988" fill="#000000" d="M70.4123979,24.204889 C72.2589064,20.4060854 76.4166529,17.7575774 81.2498107,17.7575774 C86.065907,17.7575774 90.2113521,20.3874194 92.0675822,24.1647016 C92.618991,25.2867751 91.8343342,26.2050591 91.0428374,25.5246002 C88.5917368,23.4173607 85.1109468,22.1013658 81.2498107,22.1013658 C77.5094365,22.1013658 74.1259889,23.3363293 71.6897696,25.3292186 C70.7990233,26.0578718 69.8723316,25.3159619 70.4123979,24.204889 Z"/></g></g><g data-v-af3ff330="" data-v-3394ada4="" id="eyebrow" transform="translate(0.000000, 0.000000)"><g data-v-af3ff330="" id="eyebrow-a"><path data-v-af3ff330="" transform="translate(0, 0)" fill-opacity="0.599999964" fill="#000000" fill-rule="nonzero" d="M22.7663531,1.57844898 L23.6772984,1.17582144 C28.9190996,-0.905265751 36.8645466,-0.0328729562 41.7227321,2.29911638 C42.2897848,2.57148957 41.9021563,3.4519421 41.3211012,3.40711006 C26.4021788,2.25602197 16.3582869,11.5525942 12.9460869,17.8470939 C12.8449215,18.0337142 12.5391523,18.05489 12.4635344,17.8808353 C10.156283,12.5620676 16.9134476,3.89614725 22.7663531,1.57844898 Z"/></g><g data-v-af3ff330="" id="eyebrow-b"><path data-v-af3ff330="" transform="translate(0, 0)" fill-opacity="0.599999964" fill="#000000" fill-rule="nonzero" d="M86.535177,12.0246305 C92.3421916,12.2928751 101.730304,16.5124899 101.488432,22.3684172 C101.480419,22.5600881 101.1989,22.6442368 101.06135,22.496811 C98.306449,19.5374968 78.7459953,16.5471364 71.8564209,18.1317995 C71.2258949,18.2770375 70.7468448,17.6550104 71.1462176,17.2056651 C74.5683263,13.3574126 81.3327077,11.7792465 86.535177,12.0246305 Z"/></g></g><g data-v-1eabde56="" data-v-3394ada4="" id="nose" transform="translate(28.000000, 40.000000)" fill="#00000" fill-opacity="0.16"><path data-v-1eabde56="" d="M16,8 C16,12.418278 21.372583,16 28,16 L28,16 C34.627417,16 40,12.418278 40,8"/></g><g data-v-22322966="" data-v-3394ada4="" id="mouth" transform="translate(2.000000, 52.000000)"><mask data-v-22322966="" id="smile-mask"><path data-v-22322966="" d="M35.117844,15.1280772 C36.1757121,24.6198025 44.2259873,32 54,32 C63.8042055,32 71.8740075,24.574136 72.8917593,15.0400546 C72.9736685,14.272746 72.1167429,13 71.042767,13 C56.1487536,13 44.7379213,13 37.0868244,13 C36.0066168,13 35.0120058,14.1784435 35.117844,15.1280772 Z" transform="translate(0, 0)" fill="white"/></mask><g data-v-22322966="" id="mouth"><path data-v-22322966="" transform="translate(0, 0)" fill-opacity="0.699999988" fill="#000000" fill-rule="evenodd" d="M35.117844,15.1280772 C36.1757121,24.6198025 44.2259873,32 54,32 C63.8042055,32 71.8740075,24.574136 72.8917593,15.0400546 C72.9736685,14.272746 72.1167429,13 71.042767,13 C56.1487536,13 44.7379213,13 37.0868244,13 C36.0066168,13 35.0120058,14.1784435 35.117844,15.1280772 Z"/></g><g data-v-22322966="" id="teeth"><rect data-v-22322966="" transform="translate(0, 0)" fill="#FFFFFF" fill-rule="evenodd" mask="url(#smile-mask)" x="39" y="2" width="31" height="16" rx="5"/></g><g data-v-22322966="" id="tongue-a"><circle data-v-22322966="" transform="translate(0, 0)" fill="#FF4F6D" fill-rule="evenodd" mask="url(#smile-mask)" cx="49" cy="35" r="11"/></g><g data-v-22322966="" id="tongue-b"><circle data-v-22322966="" transform="translate(0, 0)" fill="#FF4F6D" fill-rule="evenodd" mask="url(#smile-mask)" cx="59" cy="35" r="11"/></g></g><g data-v-df1a35de="" data-v-3394ada4="" id="top" transform="translate(-76.000000, -82.000000)"><g data-v-df1a35de="" id="hair"><path data-v-df1a35de="" transform="translate(-1, 0)" fill="#724133" fill-rule="evenodd" d="M180.14998,39.9204083 C177.390206,37.1003988 174.185913,34.7068297 171.069252,32.3065503 C170.381566,31.777442 169.682843,31.2610833 169.010544,30.7118441 C168.857687,30.5870323 167.291999,29.4657388 167.104691,29.0530544 C166.653816,28.0602634 166.915042,28.8332916 166.977255,27.6485857 C167.055857,26.150508 170.11064,21.9193194 167.831176,20.9490079 C166.828413,20.522232 165.039628,21.6579526 164.077671,22.0330592 C162.196235,22.7671676 160.291721,23.3932399 158.346734,23.9330847 C159.278588,22.0763407 161.055333,18.3594977 157.71591,19.3543018 C155.114345,20.1293431 152.690052,22.1219709 150.075777,23.0594018 C150.940735,21.6415124 154.399901,17.2479341 151.274209,17.0023366 C150.301549,16.925839 147.471201,18.7503735 146.423952,19.1395717 C143.287223,20.3054888 140.083264,21.0590571 136.789999,21.6525844 C125.59203,23.6707114 112.497238,23.0953019 102.1368,28.1934632 C94.1494796,32.1236942 86.262502,38.2220278 81.648386,45.987539 C77.2011742,53.472559 75.537818,61.6641751 74.6069673,70.2412987 C73.9239644,76.535909 73.8684412,83.0425652 74.1878671,89.3599905 C74.2922241,91.4297869 74.5250203,100.970847 77.5319724,98.0813859 C79.0300967,96.641688 79.019059,90.8282073 79.3963495,88.8604076 C80.1472513,84.9452748 80.870057,81.0126951 82.122006,77.2227096 C84.3282191,70.5439339 86.9307879,63.4296587 92.4269209,58.8297383 C95.9539853,55.8782066 98.4307906,51.8889248 101.806002,48.9112229 C103.322188,47.5738572 102.165231,47.7130963 104.602902,47.888571 C106.240504,48.006337 107.885464,48.0512961 109.52641,48.0942421 C113.322394,48.1928837 117.124399,48.16772 120.921387,48.1811407 C128.56821,48.208653 136.179243,48.316689 143.818708,47.9164188 C147.213653,47.7385955 150.617965,47.6423024 154.00388,47.3282597 C155.895349,47.152785 159.251496,45.9405668 160.808488,46.8669256 C162.233362,47.7144383 163.71309,50.4817719 164.736257,51.615144 C167.153525,54.2935659 170.035717,56.3392052 172.862385,58.5354911 C178.756547,63.114945 181.732392,68.8666908 183.522515,76.023241 C185.305949,83.1532854 184.805905,89.76815 187.013456,96.78479 C187.401784,98.0184813 188.428965,100.14498 189.695296,98.2389151 C189.930434,97.8849461 189.869559,95.9390277 189.869559,94.819339 C189.869559,90.2995934 191.014141,86.9083772 190.999758,82.3591197 C190.943566,68.5271489 190.49637,50.4908308 180.14998,39.9204083 Z"/></g></g><g data-v-4c8a78be="" data-v-3394ada4="" id="facialHair" transform="translate(-27.000000, -10.000000)"/></g><g data-v-66637556="" data-v-73ae21c6="" id="accessories" transform="translate(62.000000, 85.000000)"/></svg>