<svg id="SvgjsSvg1001" width="475" height="300" xmlns="http://www.w3.org/2000/svg" version="1.1" xmlns:xlink="http://www.w3.org/1999/xlink" xmlns:svgjs="http://svgjs.com/svgjs"><defs id="SvgjsDefs1002"></defs><rect id="SvgjsRect1008" width="475" height="300" fill="#ffa32c"></rect><g id="SvgjsG1013" transform="matrix(1,0,0,1,0,167.87219429016113)"><path id="SvgjsPath1014" d="M177.47499852180482 7.349999237060548Q177.47499852180482 8.224999237060548 178.50749852180482 8.837499237060548Q179.53999852180482 9.449999237060545 181.09749852180482 9.764999237060547Q182.6549985218048 10.079999237060546 184.47499852180482 10.674999237060547Q186.2949985218048 11.269999237060548 187.85249852180482 12.039999237060547Q189.40999852180482 12.809999237060547 190.4424985218048 14.402499237060546Q191.47499852180482 15.994999237060547 191.47499852180482 18.199999237060545Q191.47499852180482 22.434999237060545 188.9899985218048 24.342499237060547Q186.5049985218048 26.249999237060546 180.97499852180482 26.249999237060546Q175.44499852180482 26.249999237060546 172.9599985218048 24.429999237060546Q170.47499852180482 22.609999237060546 170.47499852180482 18.549999237060547L176.7749985218048 18.549999237060547Q176.7749985218048 20.194999237060546 177.7724985218048 20.947499237060548Q178.7699985218048 21.699999237060545 180.97499852180482 21.699999237060545Q183.00499852180482 21.699999237060545 183.91499852180482 21.122499237060545Q184.82499852180482 20.544999237060548 184.82499852180482 19.249999237060546Q184.82499852180482 17.919999237060548 183.3899985218048 17.114999237060545Q181.9549985218048 16.309999237060545 179.8899985218048 15.802499237060546Q177.82499852180482 15.294999237060546 175.75999852180482 14.612499237060547Q173.69499852180482 13.929999237060548 172.25999852180482 12.372499237060547Q170.82499852180482 10.814999237060547 170.82499852180482 8.399999237060548Q170.82499852180482 4.164999237060545 173.2399985218048 2.2574992370605464Q175.6549985218048 0.3499992370605476 180.97499852180482 0.3499992370605476Q186.2949985218048 0.3499992370605476 188.7099985218048 2.169999237060548Q191.1249985218048 3.989999237060548 191.1249985218048 8.049999237060547L184.82499852180482 8.049999237060547Q184.82499852180482 6.404999237060547 183.91499852180482 5.652499237060546Q183.00499852180482 4.899999237060548 180.97499852180482 4.899999237060548Q179.1549985218048 4.899999237060548 178.3149985218048 5.477499237060545Q177.47499852180482 6.054999237060546 177.47499852180482 7.349999237060548ZM206.1749985218048 25.549999237060547L196.0599985218048 25.549999237060547L196.0249985218048 25.549999237060547L192.8749985218048 8.049999237060547L199.1749985218048 8.049999237060547L201.09999852180482 23.624999237060546L202.6749985218048 8.049999237060547L212.82499852180482 8.049999237060547L214.3999985218048 23.624999237060546L216.32499852180482 8.049999237060547L222.6249985218048 8.049999237060547L219.47499852180482 25.549999237060547L209.6749985218048 25.549999237060547L207.7499985218048 9.974999237060548L206.1749985218048 25.549999237060547ZM222.97499852180482 20.299999237060547Q222.97499852180482 17.184999237060545 225.0574985218048 15.767499237060546Q227.1399985218048 14.349999237060548 231.72499852180482 14.349999237060548L234.1749985218048 14.349999237060548L234.1749985218048 13.649999237060547Q234.1749985218048 12.354999237060547 233.6324985218048 11.777499237060546Q233.0899985218048 11.199999237060547 231.8649985218048 11.199999237060547Q230.6749985218048 11.199999237060547 230.1499985218048 11.689999237060547Q229.6249985218048 12.179999237060548 229.6249985218048 13.299999237060547L223.6749985218048 13.299999237060547Q223.6749985218048 10.359999237060547 225.6699985218048 9.029999237060547Q227.66499852180482 7.6999992370605455 232.07499852180482 7.6999992370605455Q236.4849985218048 7.6999992370605455 238.47999852180482 9.274999237060548Q240.47499852180482 10.849999237060548 240.47499852180482 14.349999237060548L240.47499852180482 25.549999237060547L235.57499852180482 25.549999237060547L234.1749985218048 22.049999237060547Q233.2649985218048 25.89999923706055 229.2749985218048 25.89999923706055Q225.9849985218048 25.89999923706055 224.47999852180482 24.569999237060546Q222.97499852180482 23.239999237060548 222.97499852180482 20.299999237060547ZM234.1749985218048 17.849999237060548L232.4249985218048 17.849999237060548Q230.7449985218048 17.849999237060548 230.00999852180482 18.304999237060546Q229.2749985218048 18.759999237060548 229.2749985218048 19.949999237060545Q229.2749985218048 20.929999237060546 229.7649985218048 21.314999237060547Q230.2549985218048 21.699999237060545 231.3749985218048 21.699999237060545Q232.84499852180483 21.699999237060545 233.5099985218048 20.947499237060548Q234.1749985218048 20.194999237060546 234.1749985218048 18.549999237060547L234.1749985218048 17.849999237060548ZM247.1249985218048 8.049999237060547L250.2399985218048 23.589999237060546L252.72499852180482 8.049999237060547L259.02499852180483 8.049999237060547L255.5249985218048 25.199999237060545Q254.82499852180482 28.699999237060545 253.3199985218048 30.27499923706055Q251.8149985218048 31.849999237060548 249.22499852180482 31.849999237060548L243.6249985218048 31.849999237060548L243.6249985218048 27.999999237060546L247.47499852180482 27.999999237060546Q248.59499852180483 27.999999237060546 249.1724985218048 27.422499237060546Q249.7499985218048 26.84499923706055 249.9249985218048 25.549999237060547L245.0249985218048 25.549999237060547L240.82499852180482 8.049999237060547L247.1249985218048 8.049999237060547ZM279.6749985218048 1.0499992370605469L279.6749985218048 5.9499992370605455L268.4749985218048 5.9499992370605455L268.4749985218048 10.499999237060546L278.27499852180483 10.499999237060546L278.27499852180483 15.399999237060547L268.4749985218048 15.399999237060547L268.4749985218048 25.549999237060547L261.4749985218048 25.549999237060547L261.4749985218048 1.0499992370605469L279.6749985218048 1.0499992370605469ZM288.0749985218048 8.049999237060547L288.0749985218048 25.549999237060547L281.77499852180483 25.549999237060547L281.77499852180483 8.049999237060547L288.0749985218048 8.049999237060547ZM282.26499852180484 0.7524992370605474Q283.1049985218048 -7.629394538355427e-7 284.9249985218048 -7.629394538355427e-7Q286.7449985218048 -7.629394538355427e-7 287.5849985218048 0.7524992370605474Q288.4249985218048 1.5049992370605452 288.4249985218048 3.1499992370605483Q288.4249985218048 4.794999237060548 287.5849985218048 5.547499237060546Q286.7449985218048 6.299999237060547 284.9249985218048 6.299999237060547Q283.1049985218048 6.299999237060547 282.26499852180484 5.547499237060546Q281.4249985218048 4.794999237060548 281.4249985218048 3.1499992370605483Q281.4249985218048 1.5049992370605452 282.26499852180484 0.7524992370605474ZM299.6249985218048 11.899999237060547L299.6249985218048 19.249999237060546Q299.6249985218048 20.019999237060546 300.1149985218048 20.509999237060548Q300.6049985218048 20.999999237060546 301.3749985218048 20.999999237060546L304.52499852180483 20.999999237060546L304.52499852180483 25.549999237060547L298.9249985218048 25.549999237060547Q296.2999985218048 25.549999237060547 294.8124985218048 24.062499237060546Q293.3249985218048 22.574999237060545 293.3249985218048 19.949999237060545L293.3249985218048 11.899999237060547L290.52499852180483 11.899999237060547L290.52499852180483 8.049999237060547L293.3249985218048 8.049999237060547L293.3249985218048 3.499999237060546L299.6249985218048 3.499999237060546L299.6249985218048 8.049999237060547L304.52499852180483 8.049999237060547L304.52499852180483 11.899999237060547L299.6249985218048 11.899999237060547Z " fill="#550069"></path></g><g id="SvgjsG1015" transform="matrix(1,0,0,1,160,45.87219429016113)"><title>0606_lightning_bolt_horiz</title><path id="color_1" d="M97.06152,57.64728H89.56521l9.931-13.23-5.34114-8.01167-.00053.00045H69.16374L52.6986,70.84063h.00046l-.00038.0003,5.34114,8.01168H62.199L52.59741,97.85514h.00023l-.0003.0003,5.34106,8.01167h4.00922l40.455-40.20785-5.34114-8.01168-.00076.00046ZM70.45868,68.25074H56.80885l13.988-29.25481H88.971L73.02559,60.23724H90.78L58.09117,92.726Z" fill="#550069"></path></g></svg>